<?xml version="1.0" encoding="UTF-8" standalone="no"?><!DOCTYPE svg PUBLIC "-//W3C//DTD SVG 1.1//EN" "http://www.w3.org/Graphics/SVG/1.1/DTD/svg11.dtd"><svg width="100%" height="100%" viewBox="0 0 50 50" version="1.1" xmlns="http://www.w3.org/2000/svg" xmlns:xlink="http://www.w3.org/1999/xlink" xml:space="preserve" xmlns:serif="http://www.serif.com/" style="fill-rule:evenodd;clip-rule:evenodd;stroke-linejoin:round;stroke-miterlimit:2;"><g><path d="M8.799,18.405c3.64,0 6.595,2.955 6.595,6.595c0,3.64 -2.955,6.595 -6.595,6.595c-3.64,0 -6.595,-2.955 -6.595,-6.595c0,-3.64 2.955,-6.595 6.595,-6.595Zm0,2.447c2.289,0 4.148,1.859 4.148,4.148c0,2.289 -1.859,4.148 -4.148,4.148c-2.289,0 -4.148,-1.859 -4.148,-4.148c0,-2.289 1.859,-4.148 4.148,-4.148Z" style="fill:#8c8c8c;"/><path d="M25,18.405c3.64,0 6.595,2.955 6.595,6.595c0,3.64 -2.955,6.595 -6.595,6.595c-3.64,0 -6.595,-2.955 -6.595,-6.595c0,-3.64 2.955,-6.595 6.595,-6.595Zm0,2.447c2.289,0 4.148,1.859 4.148,4.148c0,2.289 -1.859,4.148 -4.148,4.148c-2.289,0 -4.148,-1.859 -4.148,-4.148c0,-2.289 1.859,-4.148 4.148,-4.148Z" style="fill:#8c8c8c;"/><path d="M41.201,18.405c3.64,0 6.595,2.955 6.595,6.595c0,3.64 -2.955,6.595 -6.595,6.595c-3.64,0 -6.595,-2.955 -6.595,-6.595c0,-3.64 2.955,-6.595 6.595,-6.595Zm0,2.447c2.289,0 4.148,1.859 4.148,4.148c0,2.289 -1.859,4.148 -4.148,4.148c-2.289,0 -4.148,-1.859 -4.148,-4.148c0,-2.289 1.859,-4.148 4.148,-4.148Z" style="fill:#8c8c8c;"/></g></svg>